<!-- Generated with https://svgsprite.com/tools/svg-sprite-generator/
     Add all files in assets/icon, and choose HTML.
-->

<svg display="none">
	<defs>
		<g id="img-3d-selected">
			<g xmlns="http://www.w3.org/2000/svg" fill="none" fill-rule="evenodd"><path fill="#FFFFFF" d="M7.53,21.48 C4.18378999,19.9039455 1.91529134,16.6816895 1.56,13 L0.06,13 C0.57,19.16 5.72,24 12.01,24 L12.67,23.97 L8.86,20.16 L7.53,21.48 Z M8.42,14.96 C8.23,14.96 8.05,14.93 7.9,14.88 C7.75063871,14.8303912 7.61406013,14.7484441 7.5,14.64 C7.39,14.54 7.3,14.42 7.24,14.27 C7.18,14.13 7.15,13.97 7.15,13.8 L5.85,13.8 C5.85,14.16 5.92,14.48 6.06,14.75 C6.2,15.02 6.39,15.25 6.62,15.44 C6.86,15.62 7.13,15.76 7.44,15.85 C7.74,15.95 8.06,16 8.4,16 C8.77,16 9.12,15.95 9.43,15.85 C9.75,15.75 10.03,15.6 10.26,15.41 C10.49,15.22 10.68,14.98 10.81,14.69 C10.94,14.4 11.01,14.08 11.01,13.72 C11.01,13.53 10.99,13.34 10.94,13.16 C10.8925571,12.9782761 10.8147995,12.8058572 10.71,12.65 C10.61,12.49 10.47,12.35 10.31,12.22 C10.14,12.09 9.94,11.99 9.7,11.91 C10.0614617,11.7489382 10.3700021,11.4889322 10.59,11.16 C10.69,11.01 10.76,10.86 10.81,10.7 C10.86,10.54 10.88,10.38 10.88,10.22 C10.88,9.86 10.82,9.54 10.7,9.26 C10.58,8.98 10.41,8.75 10.19,8.57 C9.99,8.38 9.72,8.24 9.42,8.14 C9.11,8.05 8.77,8 8.4,8 C8.04,8 7.71,8.05 7.4,8.16 C7.1,8.27 6.83,8.42 6.61,8.61 C6.4,8.8 6.23,9.02 6.1,9.28 C5.98,9.54 5.92,9.82 5.92,10.13 L7.22,10.13 C7.22,9.96 7.25,9.81 7.31,9.68 C7.37,9.55 7.45,9.43 7.56,9.34 C7.67,9.25 7.79,9.17 7.94,9.12 C8.09,9.07 8.24,9.04 8.42,9.04 C8.82,9.04 9.12,9.14 9.31,9.35 C9.5,9.55 9.6,9.84 9.6,10.21 C9.6,10.39 9.57,10.55 9.52,10.7 C9.47,10.85 9.38,10.97 9.27,11.07 C9.16,11.17 9.02,11.25 8.86,11.31 C8.7,11.37 8.5,11.4 8.28,11.4 L7.51,11.4 L7.51,12.43 L8.28,12.43 C8.5,12.43 8.7,12.45 8.88,12.5 C9.06,12.55 9.21,12.63 9.33,12.73 C9.45,12.84 9.55,12.97 9.62,13.13 C9.69,13.29 9.72,13.48 9.72,13.7 C9.72,14.11 9.6,14.42 9.37,14.63 C9.14,14.86 8.82,14.96 8.42,14.96 L8.42,14.96 Z M16.97,9.04 C16.65,8.71 16.27,8.45 15.83,8.27 C15.39,8.09 14.9,8 14.36,8 L12,8 L12,16 L14.3,16 C14.85,16 15.36,15.91 15.81,15.73 C16.26,15.55 16.65,15.3 16.97,14.97 C17.29,14.64 17.54,14.24 17.71,13.78 C17.88,13.31 17.97,12.79 17.97,12.21 L17.97,11.81 C17.97,11.23 17.88,10.71 17.71,10.24 C17.54,9.77 17.29,9.37 16.97,9.04 Z M16.58,12.2 C16.58,12.62 16.53,12.99 16.44,13.33 C16.34,13.66 16.2,13.95 16.01,14.18 C15.82,14.41 15.58,14.59 15.3,14.71 C15.01,14.83 14.68,14.89 14.31,14.89 L13.4,14.89 L13.4,9.12 L14.37,9.12 C15.09,9.12 15.64,9.35 16.01,9.81 C16.39,10.27 16.58,10.93 16.58,11.8 L16.58,12.2 L16.58,12.2 Z M12.01,0 L11.35,0.03 L15.16,3.84 L16.49,2.51 C19.76,4.06 22.1,7.23 22.45,10.99 L23.95,10.99 C23.45,4.84 18.3,0 12.01,0 Z"/><path d="M0 0H24V24H0z"/></g>
		</g>
		<g id="img-3d">
			<g xmlns="http://www.w3.org/2000/svg" fill="none" fill-rule="evenodd"><path fill="#4D4D4D" d="M7.53,21.48 C4.18378999,19.9039455 1.91529134,16.6816895 1.56,13 L0.06,13 C0.57,19.16 5.72,24 12.01,24 L12.67,23.97 L8.86,20.16 L7.53,21.48 Z M8.42,14.96 C8.23,14.96 8.05,14.93 7.9,14.88 C7.75063871,14.8303912 7.61406013,14.7484441 7.5,14.64 C7.39,14.54 7.3,14.42 7.24,14.27 C7.18,14.13 7.15,13.97 7.15,13.8 L5.85,13.8 C5.85,14.16 5.92,14.48 6.06,14.75 C6.2,15.02 6.39,15.25 6.62,15.44 C6.86,15.62 7.13,15.76 7.44,15.85 C7.74,15.95 8.06,16 8.4,16 C8.77,16 9.12,15.95 9.43,15.85 C9.75,15.75 10.03,15.6 10.26,15.41 C10.49,15.22 10.68,14.98 10.81,14.69 C10.94,14.4 11.01,14.08 11.01,13.72 C11.01,13.53 10.99,13.34 10.94,13.16 C10.8925571,12.9782761 10.8147995,12.8058572 10.71,12.65 C10.61,12.49 10.47,12.35 10.31,12.22 C10.14,12.09 9.94,11.99 9.7,11.91 C10.0614617,11.7489382 10.3700021,11.4889322 10.59,11.16 C10.69,11.01 10.76,10.86 10.81,10.7 C10.86,10.54 10.88,10.38 10.88,10.22 C10.88,9.86 10.82,9.54 10.7,9.26 C10.58,8.98 10.41,8.75 10.19,8.57 C9.99,8.38 9.72,8.24 9.42,8.14 C9.11,8.05 8.77,8 8.4,8 C8.04,8 7.71,8.05 7.4,8.16 C7.1,8.27 6.83,8.42 6.61,8.61 C6.4,8.8 6.23,9.02 6.1,9.28 C5.98,9.54 5.92,9.82 5.92,10.13 L7.22,10.13 C7.22,9.96 7.25,9.81 7.31,9.68 C7.37,9.55 7.45,9.43 7.56,9.34 C7.67,9.25 7.79,9.17 7.94,9.12 C8.09,9.07 8.24,9.04 8.42,9.04 C8.82,9.04 9.12,9.14 9.31,9.35 C9.5,9.55 9.6,9.84 9.6,10.21 C9.6,10.39 9.57,10.55 9.52,10.7 C9.47,10.85 9.38,10.97 9.27,11.07 C9.16,11.17 9.02,11.25 8.86,11.31 C8.7,11.37 8.5,11.4 8.28,11.4 L7.51,11.4 L7.51,12.43 L8.28,12.43 C8.5,12.43 8.7,12.45 8.88,12.5 C9.06,12.55 9.21,12.63 9.33,12.73 C9.45,12.84 9.55,12.97 9.62,13.13 C9.69,13.29 9.72,13.48 9.72,13.7 C9.72,14.11 9.6,14.42 9.37,14.63 C9.14,14.86 8.82,14.96 8.42,14.96 L8.42,14.96 Z M16.97,9.04 C16.65,8.71 16.27,8.45 15.83,8.27 C15.39,8.09 14.9,8 14.36,8 L12,8 L12,16 L14.3,16 C14.85,16 15.36,15.91 15.81,15.73 C16.26,15.55 16.65,15.3 16.97,14.97 C17.29,14.64 17.54,14.24 17.71,13.78 C17.88,13.31 17.97,12.79 17.97,12.21 L17.97,11.81 C17.97,11.23 17.88,10.71 17.71,10.24 C17.54,9.77 17.29,9.37 16.97,9.04 Z M16.58,12.2 C16.58,12.62 16.53,12.99 16.44,13.33 C16.34,13.66 16.2,13.95 16.01,14.18 C15.82,14.41 15.58,14.59 15.3,14.71 C15.01,14.83 14.68,14.89 14.31,14.89 L13.4,14.89 L13.4,9.12 L14.37,9.12 C15.09,9.12 15.64,9.35 16.01,9.81 C16.39,10.27 16.58,10.93 16.58,11.8 L16.58,12.2 L16.58,12.2 Z M12.01,0 L11.35,0.03 L15.16,3.84 L16.49,2.51 C19.76,4.06 22.1,7.23 22.45,10.99 L23.95,10.99 C23.45,4.84 18.3,0 12.01,0 Z"/><path d="M0 0H24V24H0z"/></g>
		</g>
		<g id="img-add">
			<g xmlns="http://www.w3.org/2000/svg" fill="none" fill-rule="evenodd"><path fill="#4D4D4D" d="M19 13L13 13 13 19 11 19 11 13 5 13 5 11 11 11 11 5 13 5 13 11 19 11z"/><path d="M0 0H24V24H0z"/></g>
		</g>
		<g id="img-addimg">
			<g xmlns="http://www.w3.org/2000/svg" fill="none" fill-rule="evenodd"><path fill="#4D4D4D" d="M5,3 C3.8954305,3 3,3.8954305 3,5 L3,19 C3,20.1045695 3.8954305,21 5,21 L14.09,21 C14.03,20.67 14,20.34 14,20 C14,19.32 14.12,18.64 14.35,18 L5,18 L8.5,13.5 L11,16.5 L14.5,12 L16.73,14.97 C17.7,14.34 18.84,14 20,14 C20.34,14 20.67,14.03 21,14.09 L21,5 C21,3.8954305 20.1045695,3 19,3 L5,3 M19,16 L19,19 L16,19 L16,21 L19,21 L19,24 L21,24 L21,21 L24,21 L24,19 L21,19 L21,16 L19,16 Z"/><path d="M0 0H24V24H0z"/></g>
		</g>
		<g id="img-bring-front">
			<g xmlns="http://www.w3.org/2000/svg" fill="none" fill-rule="evenodd"><path fill="#4D4D4D" d="M3,13 L5,13 L5,11 L3,11 L3,13 Z M3,17 L5,17 L5,15 L3,15 L3,17 Z M5,21 L5,19 L3,19 C3,20.1045695 3.8954305,21 5,21 Z M3,9 L5,9 L5,7 L3,7 L3,9 Z M15,21 L17,21 L17,19 L15,19 L15,21 Z M19,3 L9,3 C7.8954305,3 7,3.8954305 7,5 L7,15 C7,16.1045695 7.8954305,17 9,17 L19,17 C20.1,17 21,16.1 21,15 L21,5 C21,3.9 20.1,3 19,3 Z M19,15 L9,15 L9,5 L19,5 L19,15 Z M11,21 L13,21 L13,19 L11,19 L11,21 Z M7,21 L9,21 L9,19 L7,19 L7,21 Z"/><path d="M0 0H24V24H0z"/></g>
		</g>
		<g id="img-close">
			<g xmlns="http://www.w3.org/2000/svg" fill="none" fill-rule="evenodd"><path fill="#4D4D4D" d="M19 6.41L17.59 5 12 10.59 6.41 5 5 6.41 10.59 12 5 17.59 6.41 19 12 13.41 17.59 19 19 17.59 13.41 12z"/><path d="M0 0H24V24H0z"/></g>
		</g>
		<g id="img-edit-selected">
			<g xmlns="http://www.w3.org/2000/svg" fill="none" fill-rule="evenodd"><path fill="#FFFFFF" d="M3,17.46 L3,20.5 C3,20.78 3.22,21 3.5,21 L6.54,21 C6.67,21 6.8,20.95 6.89,20.85 L17.81,9.94 L14.06,6.19 L3.15,17.1 C3.05,17.2 3,17.32 3,17.46 Z M20.71,7.04 C20.8972281,6.85315541 21.002444,6.59950947 21.002444,6.335 C21.002444,6.07049053 20.8972281,5.81684459 20.71,5.63 L18.37,3.29 C18.1831554,3.10277191 17.9295095,2.99755597 17.665,2.99755597 C17.4004905,2.99755597 17.1468446,3.10277191 16.96,3.29 L15.13,5.12 L18.88,8.87 L20.71,7.04 Z"/><path d="M0 0H24V24H0z"/></g>
		</g>
		<g id="img-edit">
			<g xmlns="http://www.w3.org/2000/svg" fill="none" fill-rule="evenodd"><path fill="#4D4D4D" d="M3,17.46 L3,20.5 C3,20.78 3.22,21 3.5,21 L6.54,21 C6.67,21 6.8,20.95 6.89,20.85 L17.81,9.94 L14.06,6.19 L3.15,17.1 C3.05,17.2 3,17.32 3,17.46 Z M20.71,7.04 C20.8972281,6.85315541 21.002444,6.59950947 21.002444,6.335 C21.002444,6.07049053 20.8972281,5.81684459 20.71,5.63 L18.37,3.29 C18.1831554,3.10277191 17.9295095,2.99755597 17.665,2.99755597 C17.4004905,2.99755597 17.1468446,3.10277191 16.96,3.29 L15.13,5.12 L18.88,8.87 L20.71,7.04 Z"/><path d="M0 0H24V24H0z"/></g>
		</g>
		<g id="img-frame-lock">
			<g xmlns="http://www.w3.org/2000/svg" fill="none" fill-rule="evenodd"><path fill="#FFFFFF" d="M20,8 L17,8 L17,6.21 C17,3.6 15.09,1.27 12.49,1.02 C11.0853278,0.884174716 9.6885441,1.34731012 8.64328991,2.29546418 C7.59803573,3.24361825 7.00133867,4.5887769 7,6 L7,8 L4,8 L4,22 L20,22 L20,8 Z M12,17 C10.9,17 10,16.1 10,15 C10,13.9 10.9,13 12,13 C13.1,13 14,13.9 14,15 C14,16.1 13.1,17 12,17 Z M9,8 L9,6 C9,4.34 10.34,3 12,3 C13.66,3 15,4.34 15,6 L15,8 L9,8 Z"/><path d="M0 0H24V24H0z"/></g>
		</g>
		<g id="img-frame-unlock">
			<g xmlns="http://www.w3.org/2000/svg" fill="none" fill-rule="evenodd"><path fill="#FFFFFF" d="M16,7 L13,7 L3,7 L0,7 L0,21 L16,21 L16,7 Z M8,12 C9.1,12 10,12.9 10,14 C10,15.1 9.1,16 8,16 C6.9,16 6,15.1 6,14 C6,12.9 6.9,12 8,12 Z M4.64328991,1.29546418 C5.6885441,0.347310115 7.08532782,-0.115825284 8.49,0.02 C11.09,0.27 13,2.6 13,5.21 L13,5.21 L13,7 L11,7 L11,5 C11,2.9 8.85,1.31 6.64,2.3 C5.6,2.76 5,3.87 5,5 L5,5 L3,5 C3.00133867,3.5887769 3.59803573,2.24361825 4.64328991,1.29546418 Z" transform="translate(4 1)"/><path d="M0 0H24V24H0z"/></g>
		</g>
		<g id="img-fullscreen">
			<g xmlns="http://www.w3.org/2000/svg" fill="none" fill-rule="evenodd"><path fill="#4D4D4D" d="M7,14 L5,14 L5,19 L10,19 L10,17 L7,17 L7,14 Z M5,10 L7,10 L7,7 L10,7 L10,5 L5,5 L5,10 Z M17,17 L14,17 L14,19 L19,19 L19,14 L17,14 L17,17 Z M14,5 L14,7 L17,7 L17,10 L19,10 L19,5 L14,5 Z"/><path d="M0 0H24V24H0z"/><path d="M0 0H24V24H0z"/></g>
		</g>
		<g id="img-icon-door-joina">
			<path xmlns="http://www.w3.org/2000/svg" fill="#4d4d4d" d="M11,1.72V4H3v7.25H7.36L5.64,9.53,6.7,8.47,10.23,12,6.7,15.53,5.64,14.47l1.72-1.72H3V20h8v2.28l10-2.5V4.22Zm8,16.5-6,1.5V4.28l6,1.5Z"/><circle xmlns="http://www.w3.org/2000/svg" cx="15" cy="12" r="1" fill="#4d4d4d"/>
		</g>
		<g id="img-icon-door-leavea">
			<path xmlns="http://www.w3.org/2000/svg" fill="#D40000" d="M8,11a1,1,0,1,0,1,1A1,1,0,0,0,8,11Z"/><path xmlns="http://www.w3.org/2000/svg" fill="#D40000" d="M19.53,8.47,18.47,9.53l1.72,1.72H17V4H12V1.72L2,4.22V19.78l10,2.5V20h5V12.75h3.19l-1.72,1.72,1.06,1.06L23.06,12ZM4,5.78l6-1.5V19.72l-6-1.5Z"/>
		</g>
		<g id="img-icon-radar">
			<path xmlns="http://www.w3.org/2000/svg" fill="#4D4D4D" fill-rule="evenodd" d="M18.5373,18.5396 L19.5983,19.5996 C18.6183,20.5896 17.4683,21.3606 16.1883,21.9006 C14.8583,22.4696 13.4483,22.7496 11.9973,22.7496 C10.5483,22.7496 9.1383,22.4696 7.8183,21.9006 C7.2283,21.6506 6.6783,21.3606 6.1483,21.0196 C6.5883,20.7406 6.9483,20.3496 7.1883,19.8896 C7.5773,20.1396 7.9783,20.3396 8.3983,20.5196 C10.6783,21.4906 13.3273,21.4906 15.5983,20.5196 C16.6983,20.0596 17.6883,19.3896 18.5373,18.5396 Z M4.525,17 C5.353,17 6.025,17.672 6.025,18.5 C6.025,18.8052815 5.93364978,19.0893567 5.77681122,19.3263637 C5.77350472,19.3297594 5.77096781,19.3336518 5.7684125,19.3375312 L5.71921128,19.4074496 C5.71710302,19.410219 5.71498536,19.4129809 5.71285834,19.4157352 C5.69157076,19.4440777 5.66946343,19.4711046 5.64641518,19.4972958 C5.63920811,19.5039878 5.63293136,19.5109052 5.62659142,19.5177634 C5.51381394,19.6426823 5.37800428,19.7474575 5.2264959,19.8263053 C5.21544382,19.8318778 5.20434725,19.8375873 5.19317148,19.8431613 C5.1807022,19.849187 5.16844913,19.8549521 5.15610371,19.8605495 C4.96462982,19.9501106 4.75060565,20 4.525,20 C3.697,20 3.025,19.328 3.025,18.5 C3.025,17.9306733 3.34271065,17.4351008 3.81038931,17.1810252 C3.81669358,17.1789133 3.82279082,17.1756384 3.82891415,17.1724061 C4.03675846,17.0619034 4.27369402,17 4.525,17 Z M6.879,8.4204 C7.129,8.8804 7.498,9.2704 7.938,9.5494 C7.488,10.2804 7.248,11.1204 7.248,12.0004 C7.248,13.2694 7.748,14.4604 8.638,15.3604 C9.538,16.2594 10.728,16.7504 11.998,16.7504 C13.268,16.7504 14.458,16.2594 15.358,15.3604 L16.419,16.4204 C15.238,17.5994 13.669,18.2504 11.998,18.2504 C10.328,18.2504 8.758,17.5994 7.578,16.4204 C6.398,15.2404 5.748,13.6704 5.748,12.0004 C5.748,10.7004 6.138,9.4604 6.879,8.4204 Z M16.1883,2.1003 C17.1573,2.5103 18.0583,3.0503 18.8583,3.7193 L20.2183,2.3603 L21.6383,3.7803 L13.9283,11.4903 C13.9783,11.6503 13.9973,11.8203 13.9973,12.0003 C13.9973,13.0993 13.1083,14.0003 11.9973,14.0003 C10.8983,14.0003 9.9973,13.0993 9.9973,12.0003 C9.9973,10.9003 10.8983,10.0003 11.9973,10.0003 C12.1783,10.0003 12.3483,10.0203 12.5083,10.0703 L14.5683,8.0103 C13.9483,7.6003 13.2473,7.3603 12.5083,7.2803 C12.5283,7.1903 12.5283,7.1003 12.5283,7.0003 C12.5283,6.5603 12.4283,6.1403 12.2583,5.7603 C13.4883,5.8103 14.6573,6.2103 15.6483,6.9303 L17.7873,4.7903 C17.1173,4.2503 16.3883,3.8103 15.5983,3.4803 C13.3183,2.5103 10.6783,2.5103 8.3983,3.4803 C7.2983,3.9403 6.3083,4.6103 5.4573,5.4603 C4.6083,6.3103 3.9383,7.3003 3.4783,8.4003 C2.9973,9.5403 2.7473,10.7503 2.7473,12.0003 C2.7473,13.2503 2.9973,14.4603 3.4783,15.5993 C3.4883,15.6303 3.4973,15.6503 3.5183,15.6793 C3.0183,15.8493 2.5883,16.1503 2.2583,16.5403 C2.2073,16.4203 2.1483,16.3003 2.0983,16.1793 C1.5373,14.8603 1.2473,13.4503 1.2473,12.0003 C1.2473,10.5503 1.5373,9.1403 2.0983,7.8203 C2.6383,6.5403 3.4073,5.3903 4.3983,4.4003 C5.3883,3.4103 6.5373,2.6403 7.8183,2.1003 C10.4683,0.9693 13.5373,0.9693 16.1883,2.1003 Z M19.525,11.75 C20.353,11.75 21.025,12.421 21.025,13.25 C21.025,14.078 20.353,14.75 19.525,14.75 C18.697,14.75 18.025,14.078 18.025,13.25 C18.025,12.421 18.697,11.75 19.525,11.75 Z M9.525,5.5 C9.92885294,5.5 10.2955942,5.65986563 10.5653512,5.91972424 L10.568,5.92 L10.6246728,5.98016498 C10.6287109,5.98451686 10.6327235,5.98889271 10.6367104,5.99329232 L10.568,5.92 C10.6518889,6.00089286 10.7268016,6.09255716 10.7905866,6.19257254 C10.7944974,6.20094705 10.79952,6.20896201 10.8044686,6.21702728 C10.8241728,6.24695648 10.841748,6.27807219 10.8582494,6.30985617 C10.8626855,6.32086308 10.8678717,6.3311485 10.872942,6.3415008 C10.9719875,6.54075333 11.028,6.76570896 11.028,7 C11.028,7.09266667 11.0220367,7.18533333 11.0009002,7.278 C10.8693296,7.97363568 10.2583517,8.5 9.525,8.5 C8.697,8.5 8.025,7.829 8.025,7 C8.025,6.172 8.697,5.5 9.525,5.5 Z"/>
		</g>
		<g id="img-join">
			<g xmlns="http://www.w3.org/2000/svg" fill="none" fill-rule="evenodd"><g fill="#4D4D4D"><path d="M9,2 L18,2 C19.1,2 20,2.9 20,4 L20,20 C20,21.1 19.1,22 18,22 L9,22 C7.9,22 7,21.1 7,20 L7,18 L9,18 L9,20 L18,20 L18,4 L9,4 L9,6 L7,6 L7,4 C7,2.9 7.9,2 9,2 Z"/><path d="M10.09 15.59L11.5 17 16.5 12 11.5 7 10.09 8.41 12.67 11 3 11 3 13 12.67 13z"/></g><path d="M0 0H24V24H0z"/></g>
		</g>
		<g id="img-leave">
			<g xmlns="http://www.w3.org/2000/svg" fill="none" fill-rule="evenodd"><g fill="#F2F2F2"><path d="M6,2 L15,2 C16.1045695,2 17,2.8954305 17,4 L17,6 L15,6 L15,4 L6,4 L6,20 L15,20 L15,18 L17,18 L17,20 C17,21.1045695 16.1045695,22 15,22 L6,22 C4.8954305,22 4,21.1045695 4,20 L4,4 C4,2.8954305 4.8954305,2 6,2 Z"/><path d="M16.09 15.59L17.5 17 22.5 12 17.5 7 16.09 8.41 18.67 11 9 11 9 13 18.67 13z"/></g><path d="M0 0H24V24H0z"/></g>
		</g>
		<g id="img-link-selected">
			<g xmlns="http://www.w3.org/2000/svg" fill="none" fill-rule="evenodd"><path fill="#FFFFFF" d="M8.59,11.41 C9,11.8 9,12.44 8.59,12.83 C8.2,13.22 7.56,13.22 7.17,12.83 C5.21974461,10.8768159 5.21974461,7.71318406 7.17,5.76 L10.71,2.22 C12.6631841,0.269744615 15.8268159,0.269744615 17.78,2.22 C19.7302554,4.17318406 19.7302554,7.33681594 17.78,9.29 L16.29,10.78 C16.3,9.96 16.17,9.14 15.89,8.36 L16.36,7.88 C16.9262452,7.3198652 17.2448772,6.55648268 17.2448772,5.76 C17.2448772,4.96351732 16.9262452,4.2001348 16.36,3.64 C15.7998652,3.07375477 15.0364827,2.75512279 14.24,2.75512279 C13.4435173,2.75512279 12.6801348,3.07375477 12.12,3.64 L8.59,7.17 C8.02375477,7.7301348 7.70512279,8.49351732 7.70512279,9.29 C7.70512279,10.0864827 8.02375477,10.8498652 8.59,11.41 M11.41,7.17 C11.8,6.78 12.44,6.78 12.83,7.17 C14.7802554,9.12318406 14.7802554,12.2868159 12.83,14.24 L9.29,17.78 C7.33681594,19.7302554 4.17318406,19.7302554 2.22,17.78 C0.269744615,15.8268159 0.269744615,12.6631841 2.22,10.71 L3.71,9.22 C3.7,10.04 3.83,10.86 4.11,11.65 L3.64,12.12 C3.07375477,12.6801348 2.75512279,13.4435173 2.75512279,14.24 C2.75512279,15.0364827 3.07375477,15.7998652 3.64,16.36 C4.2001348,16.9262452 4.96351732,17.2448772 5.76,17.2448772 C6.55648268,17.2448772 7.3198652,16.9262452 7.88,16.36 L11.41,12.83 C11.9762452,12.2698652 12.2948772,11.5064827 12.2948772,10.71 C12.2948772,9.91351732 11.9762452,9.1501348 11.41,8.59 C11.2136902,8.40604839 11.1023037,8.14902739 11.1023037,7.88 C11.1023037,7.61097261 11.2136902,7.35395161 11.41,7.17 Z" transform="translate(2 2)"/><path d="M0 0H24V24H0z"/></g>
		</g>
		<g id="img-link">
			<g xmlns="http://www.w3.org/2000/svg" fill="none" fill-rule="evenodd"><path fill="#4D4D4D" d="M8.59,11.41 C9,11.8 9,12.44 8.59,12.83 C8.2,13.22 7.56,13.22 7.17,12.83 C5.21974461,10.8768159 5.21974461,7.71318406 7.17,5.76 L10.71,2.22 C12.6631841,0.269744615 15.8268159,0.269744615 17.78,2.22 C19.7302554,4.17318406 19.7302554,7.33681594 17.78,9.29 L16.29,10.78 C16.3,9.96 16.17,9.14 15.89,8.36 L16.36,7.88 C16.9262452,7.3198652 17.2448772,6.55648268 17.2448772,5.76 C17.2448772,4.96351732 16.9262452,4.2001348 16.36,3.64 C15.7998652,3.07375477 15.0364827,2.75512279 14.24,2.75512279 C13.4435173,2.75512279 12.6801348,3.07375477 12.12,3.64 L8.59,7.17 C8.02375477,7.7301348 7.70512279,8.49351732 7.70512279,9.29 C7.70512279,10.0864827 8.02375477,10.8498652 8.59,11.41 M11.41,7.17 C11.8,6.78 12.44,6.78 12.83,7.17 C14.7802554,9.12318406 14.7802554,12.2868159 12.83,14.24 L9.29,17.78 C7.33681594,19.7302554 4.17318406,19.7302554 2.22,17.78 C0.269744615,15.8268159 0.269744615,12.6631841 2.22,10.71 L3.71,9.22 C3.7,10.04 3.83,10.86 4.11,11.65 L3.64,12.12 C3.07375477,12.6801348 2.75512279,13.4435173 2.75512279,14.24 C2.75512279,15.0364827 3.07375477,15.7998652 3.64,16.36 C4.2001348,16.9262452 4.96351732,17.2448772 5.76,17.2448772 C6.55648268,17.2448772 7.3198652,16.9262452 7.88,16.36 L11.41,12.83 C11.9762452,12.2698652 12.2948772,11.5064827 12.2948772,10.71 C12.2948772,9.91351732 11.9762452,9.1501348 11.41,8.59 C11.2136902,8.40604839 11.1023037,8.14902739 11.1023037,7.88 C11.1023037,7.61097261 11.2136902,7.35395161 11.41,7.17 Z" transform="translate(2 2)"/><path d="M0 0H24V24H0z"/></g>
		</g>
		<g id="img-lock">
			<g xmlns="http://www.w3.org/2000/svg" fill="none" fill-rule="evenodd"><path fill="#4D4D4D" d="M20,8 L17,8 L17,6.21 C17,3.6 15.09,1.27 12.49,1.02 C11.0853278,0.884174716 9.6885441,1.34731012 8.64328991,2.29546418 C7.59803573,3.24361825 7.00133867,4.5887769 7,6 L7,8 L4,8 L4,22 L20,22 L20,8 Z M12,17 C10.9,17 10,16.1 10,15 C10,13.9 10.9,13 12,13 C13.1,13 14,13.9 14,15 C14,16.1 13.1,17 12,17 Z M9,8 L9,6 C9,4.34 10.34,3 12,3 C13.66,3 15,4.34 15,6 L15,8 L9,8 Z"/><path d="M0 0H24V24H0z"/></g>
		</g>
		<g id="img-make-opaque">
			<g xmlns="http://www.w3.org/2000/svg" fill="none" fill-rule="evenodd"><g fill="#4D4D4D"><path d="M13,0 L2,0 C0.9,0 0,0.9 0,2 L0,13 C0,14.104 0.896,15 2,15 L2,2 L15,2 C15,0.896 14.104,0 13,0" transform="translate(2 2)"/><path d="M6,18 L18,18 L18,6 L6,6 L6,18 Z M17.866,4 L6.134,4 C4.96,4 4,4.8 4,5.777 L4,18.223 C4,19.2 4.96,20 6.134,20 L17.866,20 C19.04,20 20,19.2 20,18.223 L20,5.777 C20,4.8 19.04,4 17.866,4 L17.866,4 Z" transform="translate(2 2)"/><path d="M8 16L16 16 16 8 8 8z" transform="translate(2 2)"/></g><path d="M0 0H24V24H0z"/></g>
		</g>
		<g id="img-more-active">
			<g xmlns="http://www.w3.org/2000/svg" fill="none" fill-rule="evenodd"><path fill="#06dae2" d="M12,8 C13.1,8 14,7.1 14,6 C14,4.9 13.1,4 12,4 C10.9,4 10,4.9 10,6 C10,7.1 10.9,8 12,8 Z M12,10 C10.9,10 10,10.9 10,12 C10,13.1 10.9,14 12,14 C13.1,14 14,13.1 14,12 C14,10.9 13.1,10 12,10 Z M12,16 C10.9,16 10,16.9 10,18 C10,19.1 10.9,20 12,20 C13.1,20 14,19.1 14,18 C14,16.9 13.1,16 12,16 Z"/><path d="M0 0H24V24H0z"/></g>
		</g>
		<g id="img-make-trans">
			<g xmlns="http://www.w3.org/2000/svg" fill="none" fill-rule="evenodd"><path fill="#4D4D4D" d="M15,2 C16.104,2 17,2.896 17,4 L17,4 L4,4 L4,17 C2.896,17 2,16.104 2,15 L2,15 L2,4 C2,2.9 2.9,2 4,2 L4,2 Z M17.0039,10 L17.0039,15 C17.0039,16.1 16.1049,17 15.0039,17 L9.9439,17 L9.9439,15 L15.0039,15 L15.0039,10 L17.0039,10 Z"/><path fill="#4D4D4D" d="M8.004,20 L20.004,20 L20.004,8 L8.004,8 L8.004,20 Z M19.864,6 L8.135,6 C6.965,6 6.004,6.8 6.004,7.78 L6.004,20.22 C6.004,21.2 6.965,22 8.135,22 L19.864,22 C21.044,22 22.004,21.2 22.004,20.22 L22.004,7.78 C22.004,6.8 21.044,6 19.864,6 L19.864,6 Z"/><path d="M0 0H24V24H0z"/></g>
		</g>
		<g id="img-more-gray">
			<g xmlns="http://www.w3.org/2000/svg" fill="none" fill-rule="evenodd"><path fill="#4D4D4D" d="M12,8 C13.1,8 14,7.1 14,6 C14,4.9 13.1,4 12,4 C10.9,4 10,4.9 10,6 C10,7.1 10.9,8 12,8 Z M12,10 C10.9,10 10,10.9 10,12 C10,13.1 10.9,14 12,14 C13.1,14 14,13.1 14,12 C14,10.9 13.1,10 12,10 Z M12,16 C10.9,16 10,16.9 10,18 C10,19.1 10.9,20 12,20 C13.1,20 14,19.1 14,18 C14,16.9 13.1,16 12,16 Z"/><path d="M0 0H24V24H0z"/></g>
		</g>
		<g id="img-more">
			<g xmlns="http://www.w3.org/2000/svg" fill="none" fill-rule="evenodd"><path fill="#FFFFFF" d="M12,8 C13.1,8 14,7.1 14,6 C14,4.9 13.1,4 12,4 C10.9,4 10,4.9 10,6 C10,7.1 10.9,8 12,8 Z M12,10 C10.9,10 10,10.9 10,12 C10,13.1 10.9,14 12,14 C13.1,14 14,13.1 14,12 C14,10.9 13.1,10 12,10 Z M12,16 C10.9,16 10,16.9 10,18 C10,19.1 10.9,20 12,20 C13.1,20 14,19.1 14,18 C14,16.9 13.1,16 12,16 Z"/><path d="M0 0H24V24H0z"/></g>
		</g>
		<g id="img-mute">
			<g xmlns="http://www.w3.org/2000/svg" fill="none" fill-rule="evenodd"><path fill="#4D4D4D" d="M16.5,12 C16.4995712,10.2909166 15.531008,8.7295926 14,7.97 L14,10.18 L16.45,12.63 C16.48,12.43 16.5,12.22 16.5,12 L16.5,12 Z M19,12 C19,12.94 18.8,13.82 18.46,14.64 L19.97,16.15 C20.6494581,14.8724455 21.0032443,13.4469963 21.0000221,12 C21.0000221,7.72 18.01,4.14 14,3.23 L14,5.29 C16.89,6.15 19,8.83 19,12 Z M4.27,3 L3,4.27 L7.73,9 L3,9 L3,15 L7,15 L12,20 L12,13.27 L16.25,17.52 C15.58,18.04 14.83,18.45 14,18.7 L14,20.76 C15.3532634,20.4496963 16.6162667,19.8301743 17.69,18.95 L19.73,21 L21,19.73 L12,10.73 L4.27,3 Z M12,4 L9.91,6.09 L12,8.18 L12,4 Z"/><path d="M0 0H24V24H0z"/></g>
		</g>
		<g id="img-new">
			<g xmlns="http://www.w3.org/2000/svg" fill="none" fill-rule="evenodd"><path fill="#4D4D4D" d="M18,8 L8,8 L8,18 L6,18 L6,8 C6,6.8954305 6.8954305,6 8,6 L18,6 L18,8 M14,2 L4,2 C2.8954305,2 2,2.8954305 2,4 L2,14 L4,14 L4,4 L14,4 L14,2 M22,12 L22,20 C22,21.1045695 21.1045695,22 20,22 L12,22 C10.8954305,22 10,21.1045695 10,20 L10,12 C10,10.8954305 10.8954305,10 12,10 L20,10 C21.1045695,10 22,10.8954305 22,12 M20,15 L17,15 L17,12 L15,12 L15,15 L12,15 L12,17 L15,17 L15,20 L17,20 L17,17 L20,17 L20,15 Z"/><path d="M0 0H24V24H0z"/></g>
		</g>
		<g id="img-outline-hide0">
			<g xmlns="http://www.w3.org/2000/svg" fill="#4D4D4D" fill-rule="evenodd"><path d="M0 2L20.73 22.73 22.001 21.46 1.27 0.73z" transform="translate(0 1)"/><path d="M11 16L13 16 13 14 11 14z" transform="translate(0 1)"/><path d="M7.1095,3.9999 L18.0005,3.9999 C18.5495,3.9999 19.0005,4.4499 19.0005,4.9999 L19.0005,15.8909 L21.0005,17.8909 L21.0005,3.9999 C21.0005,2.8999 20.0995,1.9999 19.0005,1.9999 L5.1095,1.9999 L7.1095,3.9999 Z" transform="translate(0 1)"/><path d="M7 12L9 12 9 10 7 10z" transform="translate(0 1)"/><path d="M11 7.891L11.109 8 13 8 13 6 11 6z" transform="translate(0 1)"/><path d="M18.4494,17.8798 C18.3124,17.9498 18.1644,17.9998 18.0004,17.9998 L6.0004,17.9998 C5.4504,17.9998 5.0004,17.5498 5.0004,16.9998 L5.0004,4.9998 C5.0004,4.8358 5.0504,4.6878 5.1204,4.5508 L3.3924,2.8228 C3.1484,3.1538 3.0004,3.5598 3.0004,3.9998 L3.0004,17.9998 C3.0004,19.0998 3.8994,19.9998 5.0004,19.9998 L19.0004,19.9998 C19.4404,19.9998 19.8454,19.8508 20.1774,19.6078 L18.4494,17.8798 Z" transform="translate(0 1)"/><path d="M11 12L12.569 12 11 10.431z" transform="translate(0 1)"/><path d="M17 10L15 10 15 11.891 15.109 12 17 12z" transform="translate(0 1)"/></g>
		</g>
		<g id="img-outline-show0">
			<g xmlns="http://www.w3.org/2000/svg" fill="#4D4D4D" fill-rule="evenodd"><path d="M12,2 L14,2 L14,0 L12,0 L12,2 Z M12,18 L14,18 L14,16 L12,16 L12,18 Z M16,14 L18,14 L18,12 L16,12 L16,14 Z M16,6 L18,6 L18,4 L16,4 L16,6 Z M16,18 C17.1,18 18,17.1 18,16 L16,16 L16,18 Z M8,18 L10,18 L10,16 L8,16 L8,18 Z M4,2 L6,2 L6,0 L4,0 L4,2 Z M0,14 L2,14 L2,12 L0,12 L0,14 Z M2,18 L2,16 L0,16 C0,17.1 0.9,18 2,18 L2,18 Z M16,0 L16,2 L18,2 C18,0.9 17.1,0 16,0 L16,0 Z M8,2 L10,2 L10,0 L8,0 L8,2 Z M0,6 L2,6 L2,4 L0,4 L0,6 Z M4,18 L6,18 L6,16 L4,16 L4,18 Z M0,2 L2,2 L2,0 C0.9,0 0,0.9 0,2 L0,2 Z" transform="translate(3 3)"/><path d="M9.0003,6.7499 C7.7553,6.7499 6.7503,7.7549 6.7503,8.9999 C6.7503,10.2449 7.7553,11.2499 9.0003,11.2499 C10.2453,11.2499 11.2503,10.2449 11.2503,8.9999 C11.2503,7.7549 10.2453,6.7499 9.0003,6.7499 M9.0003,12.7499 C6.9303,12.7499 5.2503,11.0699 5.2503,8.9999 C5.2503,6.9299 6.9303,5.2499 9.0003,5.2499 C11.0693,5.2499 12.7503,6.9299 12.7503,8.9999 C12.7503,11.0699 11.0693,12.7499 9.0003,12.7499 M9.0003,3.3749 C5.2503,3.3749 2.0473,5.7079 0.7503,8.9999 C2.0473,12.2929 5.2503,14.6249 9.0003,14.6249 C12.7503,14.6249 15.9523,12.2929 17.2503,8.9999 C15.9523,5.7079 12.7503,3.3749 9.0003,3.3749" transform="translate(3 3)"/></g>
		</g>
		<g id="img-pdf-selected">
			<g xmlns="http://www.w3.org/2000/svg" fill="none" fill-rule="evenodd"><path fill="#FFFFFF" d="M10,0 L16,6 L16,18 C16,19.1045695 15.1045695,20 14,20 L14,20 L2,20 C0.8954305,20 0,19.1045695 0,18 L0,18 L0,2 C0,0.8954305 0.8954305,0 2,0 L2,0 L10,0 Z M7.66,12 C7.25213878,11.9963432 6.84460127,12.0240919 6.441,12.083 L6.441,12.083 L6.441,16 C6.666,16.03 6.997,16.06 7.465,16.06 C8.246,16.06 8.885,15.894 9.305,15.545 C9.689,15.22 9.968,14.693 9.968,13.93 C9.968,13.225 9.708,12.734 9.293,12.426 C8.909,12.136 8.417,12 7.66,12 Z M4.219,12 C3.81111962,11.9943927 3.4034547,12.0218156 3,12.082 L3,12.082 L3,16.018 L3.894,16.018 L3.894,14.592 C3.99612799,14.6051034 4.0990409,14.6111178 4.202,14.61 C4.733,14.61 5.189,14.48 5.498,14.19 L5.498,14.19 C5.734,13.965 5.864,13.634 5.865,13.242 C5.865,12.852 5.693,12.521 5.439,12.319 C5.172,12.106 4.776,12 4.219,12 Z M13,12.03 L10.562,12.03 L10.562,16.019 L11.468,16.019 L11.468,14.415 L12.9,14.415 L12.9,13.681 L11.468,13.681 L11.468,12.77 L13,12.77 L13,12.03 Z M7.754,12.692 C8.53,12.692 9.015,13.13 9.009,13.96 C9.009,14.912 8.477,15.362 7.66,15.356 C7.548,15.356 7.424,15.356 7.347,15.338 L7.347,15.338 L7.347,12.728 C7.424,12.71 7.554,12.692 7.754,12.692 Z M4.267,12.68 C4.717,12.68 4.971,12.9 4.971,13.266 C4.971,13.675 4.676,13.917 4.197,13.917 C4.066,13.917 3.971,13.912 3.895,13.894 L3.895,13.894 L3.895,12.716 C3.959,12.698 4.083,12.68 4.267,12.68 Z M9,2 L9,7 L14,7 L9,2 Z" transform="translate(4 2)"/><path d="M0 0H24V24H0z"/></g>
		</g>
		<g id="img-pdf">
			<g xmlns="http://www.w3.org/2000/svg" fill="none" fill-rule="evenodd"><path fill="#4D4D4D" d="M10,0 L16,6 L16,18 C16,19.1045695 15.1045695,20 14,20 L14,20 L2,20 C0.8954305,20 0,19.1045695 0,18 L0,18 L0,2 C0,0.8954305 0.8954305,0 2,0 L2,0 L10,0 Z M7.66,12 C7.25213878,11.9963432 6.84460127,12.0240919 6.441,12.083 L6.441,12.083 L6.441,16 C6.666,16.03 6.997,16.06 7.465,16.06 C8.246,16.06 8.885,15.894 9.305,15.545 C9.689,15.22 9.968,14.693 9.968,13.93 C9.968,13.225 9.708,12.734 9.293,12.426 C8.909,12.136 8.417,12 7.66,12 Z M4.219,12 C3.81111962,11.9943927 3.4034547,12.0218156 3,12.082 L3,12.082 L3,16.018 L3.894,16.018 L3.894,14.592 C3.99612799,14.6051034 4.0990409,14.6111178 4.202,14.61 C4.733,14.61 5.189,14.48 5.498,14.19 L5.498,14.19 C5.734,13.965 5.864,13.634 5.865,13.242 C5.865,12.852 5.693,12.521 5.439,12.319 C5.172,12.106 4.776,12 4.219,12 Z M13,12.03 L10.562,12.03 L10.562,16.019 L11.468,16.019 L11.468,14.415 L12.9,14.415 L12.9,13.681 L11.468,13.681 L11.468,12.77 L13,12.77 L13,12.03 Z M7.754,12.692 C8.53,12.692 9.015,13.13 9.009,13.96 C9.009,14.912 8.477,15.362 7.66,15.356 C7.548,15.356 7.424,15.356 7.347,15.338 L7.347,15.338 L7.347,12.728 C7.424,12.71 7.554,12.692 7.754,12.692 Z M4.267,12.68 C4.717,12.68 4.971,12.9 4.971,13.266 C4.971,13.675 4.676,13.917 4.197,13.917 C4.066,13.917 3.971,13.912 3.895,13.894 L3.895,13.894 L3.895,12.716 C3.959,12.698 4.083,12.68 4.267,12.68 Z M9,2 L9,7 L14,7 L9,2 Z" transform="translate(4 2)"/><path d="M0 0H24V24H0z"/></g>
		</g>
		<g id="img-pointer-selected">
			<g xmlns="http://www.w3.org/2000/svg" fill="none" fill-rule="evenodd"><path fill="#FFFFFF" d="M13.91 12.36L17 20.854 14.182 21.88 11.09 13.386 6.918 16.542 8.408 1.633 19.134 12.096z"/><path d="M0 0H24V24H0z"/></g>
		</g>
		<g id="img-pointer">
			<g xmlns="http://www.w3.org/2000/svg" fill="none" fill-rule="evenodd"><path fill="#4D4D4D" d="M13.91 12.36L17 20.854 14.182 21.88 11.09 13.386 6.918 16.542 8.408 1.633 19.134 12.096z"/><path d="M0 0H24V24H0z"/></g>
		</g>
		<g id="img-resize-indicator-bottom-left">
			<path xmlns="http://www.w3.org/2000/svg" fill="#2ba341" d="M.81.69a.5.5,0,0,0-.5.5v1a7.5,7.5,0,0,0,7.5,7.5h1a.5.5,0,0,0,.5-.5.51.51,0,0,0-.5-.5h-1a6.5,6.5,0,0,1-6.5-6.5v-1A.51.51,0,0,0,.81.69Z" opacity=".6"/><path xmlns="http://www.w3.org/2000/svg" fill="#ccf078" d="M1.5,0A.5.5,0,0,0,1,.5v1A7.5,7.5,0,0,0,8.5,9h1a.5.5,0,0,0,0-1h-1A6.51,6.51,0,0,1,2,1.5V.5A.5.5,0,0,0,1.5,0Z"/>
		</g>
		<g id="img-send-back">
			<g xmlns="http://www.w3.org/2000/svg" fill="none" fill-rule="evenodd"><path fill="#4D4D4D" d="M6,4 L4,4 L4,6 L6,6 L6,4 Z M6,8 L4,8 L4,10 L6,10 L6,8 Z M6,0 C4.8954305,0 4,0.8954305 4,2 L6,2 L6,0 Z M10,12 L8,12 L8,14 L10,14 L10,12 Z M16,0 L16,2 L18,2 C18,0.9 17.1,0 16,0 Z M10,0 L8,0 L8,2 L10,2 L10,0 Z M6,14 L6,12 L4,12 C4,13.1045695 4.8954305,14 6,14 Z M16,10 L18,10 L18,8 L16,8 L16,10 Z M16,6 L18,6 L18,4 L16,4 L16,6 Z M16,14 C17.1,14 18,13.1 18,12 L16,12 L16,14 Z M2,4 L0,4 L0,16 C0,17.1045695 0.8954305,18 2,18 L14,18 L14,16 L2,16 L2,4 Z M12,2 L14,2 L14,0 L12,0 L12,2 Z M12,14 L14,14 L14,12 L12,12 L12,14 Z" transform="translate(3 3)"/><path d="M0 0H24V24H0z"/></g>
		</g>
		<g id="img-share-screen">
			<g xmlns="http://www.w3.org/2000/svg" fill="none" fill-rule="evenodd"><path fill="#4D4D4D" d="M20,18 C21.1,18 21.99,17.1 21.99,16 L22,6 C22,4.8954305 21.1045695,4 20,4 L4,4 C2.89,4 2,4.89 2,6 L2,16 C2,17.1045695 2.8954305,18 4,18 L0,18 L0,20 L24,20 L24,18 L20,18 Z M13,14.47 L13,12.28 C10.22,12.28 8.39,13.13 7,15 C7.56,12.33 9.11,9.67 13,9.13 L13,7 L17,10.73 L13,14.47 Z"/><path d="M0 0H24V24H0z"/></g>
		</g>
		<g id="img-resize-indicator-bottom-right">
			<path xmlns="http://www.w3.org/2000/svg" fill="#2ba341" d="M9.19.69a.5.5,0,0,1,.5.5v1a7.5,7.5,0,0,1-7.5,7.5h-1a.5.5,0,0,1-.5-.5.51.51,0,0,1,.5-.5h1a6.5,6.5,0,0,0,6.5-6.5v-1A.51.51,0,0,1,9.19.69Z" opacity=".6"/><path xmlns="http://www.w3.org/2000/svg" fill="#ccf078" d="M8.5,0A.5.5,0,0,1,9,.5v1A7.5,7.5,0,0,1,1.5,9H.5a.5.5,0,0,1,0-1h1A6.51,6.51,0,0,0,8,1.5V.5A.5.5,0,0,1,8.5,0Z"/>
		</g>
		<g id="img-trash-can">
			<g xmlns="http://www.w3.org/2000/svg" fill="none" fill-rule="evenodd"><path fill="#4D4D4D" d="M9,3 L9,4 L4,4 L4,6 L5,6 L5,19 C5,20.1045695 5.8954305,21 7,21 L17,21 C18.1045695,21 19,20.1045695 19,19 L19,6 L20,6 L20,4 L15,4 L15,3 L9,3 M9,8 L11,8 L11,17 L9,17 L9,8 M13,8 L15,8 L15,17 L13,17 L13,8 Z"/><path d="M0 0H24V24H0z"/></g>
		</g>
		<g id="img-tools">
			<g xmlns="http://www.w3.org/2000/svg" fill="none" fill-rule="evenodd"><path fill="#4D4D4D" d="M21.71,20.29 L20.29,21.71 C19.8999625,22.0977236 19.2700375,22.0977236 18.88,21.71 L7,9.85 C6.67481177,9.94420831 6.33851735,9.99465247 6,10 C4.70819541,9.99907774 3.4963573,9.3743492 2.74626198,8.32262825 C1.99616666,7.2709073 1.80016307,5.9216779 2.22,4.7 L4.76,7.24 L5.29,6.71 L6.71,5.29 L7.24,4.76 L4.7,2.22 C5.9216779,1.80016307 7.2709073,1.99616666 8.32262825,2.74626198 C9.3743492,3.4963573 9.99907774,4.70819541 10,6 C9.99465247,6.33851735 9.94420831,6.67481177 9.85,7 L21.71,18.88 C22.0977236,19.2700375 22.0977236,19.8999625 21.71,20.29 M2.29,18.88 C1.90227641,19.2700375 1.90227641,19.8999625 2.29,20.29 L3.71,21.71 C4.10003745,22.0977236 4.72996255,22.0977236 5.12,21.71 L10.59,16.25 L7.76,13.42 M20,2 L16,4 L16,6 L13.83,8.17 L15.83,10.17 L18,8 L20,8 L22,4 L20,2 Z"/><path d="M0 0H24V24H0z"/></g>
		</g>
		<g id="img-text-fields">
			<g xmlns="http://www.w3.org/2000/svg" fill="none" fill-rule="evenodd"><path fill="#4D4D4D" d="M2.5,4 L2.5,7 L7.5,7 L7.5,19 L10.5,19 L10.5,7 L15.5,7 L15.5,4 L2.5,4 Z M21.5,9 L12.5,9 L12.5,12 L15.5,12 L15.5,19 L18.5,19 L18.5,12 L21.5,12 L21.5,9 Z"/><path d="M0 0H24V24H0z"/></g>
		</g>
		<g id="img-text-fields-selected">
			<g xmlns="http://www.w3.org/2000/svg" fill="none" fill-rule="evenodd"><path fill="#FFFFFF" d="M2.5,4 L2.5,7 L7.5,7 L7.5,19 L10.5,19 L10.5,7 L15.5,7 L15.5,4 L2.5,4 Z M21.5,9 L12.5,9 L12.5,12 L15.5,12 L15.5,19 L18.5,19 L18.5,12 L21.5,12 L21.5,9 Z"/><path d="M0 0H24V24H0z"/></g>
		</g>
		<g id="img-unlock">
			<g xmlns="http://www.w3.org/2000/svg" fill="none" fill-rule="evenodd"><path fill="#4D4D4D" d="M16,7 L13,7 L3,7 L0,7 L0,21 L16,21 L16,7 Z M8,12 C9.1,12 10,12.9 10,14 C10,15.1 9.1,16 8,16 C6.9,16 6,15.1 6,14 C6,12.9 6.9,12 8,12 Z M4.64328991,1.29546418 C5.6885441,0.347310115 7.08532782,-0.115825284 8.49,0.02 C11.09,0.27 13,2.6 13,5.21 L13,5.21 L13,7 L11,7 L11,5 C11,2.9 8.85,1.31 6.64,2.3 C5.6,2.76 5,3.87 5,5 L5,5 L3,5 C3.00133867,3.5887769 3.59803573,2.24361825 4.64328991,1.29546418 Z" transform="translate(4 1)"/><path d="M0 0H24V24H0z"/></g>
		</g>
		<g id="img-unmute">
			<g xmlns="http://www.w3.org/2000/svg" fill="none" fill-rule="evenodd"><path fill="#FFFFFF" d="M3,9 L3,15 L7,15 L12,20 L12,4 L7,9 L3,9 Z M16.5,12 C16.4995712,10.2909166 15.531008,8.7295926 14,7.97 L14,16.02 C15.48,15.29 16.5,13.77 16.5,12 Z M14,3.23 L14,5.29 C16.89,6.15 19,8.83 19,12 C19,15.17 16.89,17.85 14,18.71 L14,20.77 C18.01,19.86 21,16.28 21,12 C21,7.72 18.01,4.14 14,3.23 Z"/><path d="M0 0H24V24H0z"/></g>
		</g>
		<g id="img-tools-selected">
			<g xmlns="http://www.w3.org/2000/svg" fill="none" fill-rule="evenodd"><path fill="#FFFFFF" d="M21.71,20.29 L20.29,21.71 C19.8999625,22.0977236 19.2700375,22.0977236 18.88,21.71 L7,9.85 C6.67481177,9.94420831 6.33851735,9.99465247 6,10 C4.70819541,9.99907774 3.4963573,9.3743492 2.74626198,8.32262825 C1.99616666,7.2709073 1.80016307,5.9216779 2.22,4.7 L4.76,7.24 L5.29,6.71 L6.71,5.29 L7.24,4.76 L4.7,2.22 C5.9216779,1.80016307 7.2709073,1.99616666 8.32262825,2.74626198 C9.3743492,3.4963573 9.99907774,4.70819541 10,6 C9.99465247,6.33851735 9.94420831,6.67481177 9.85,7 L21.71,18.88 C22.0977236,19.2700375 22.0977236,19.8999625 21.71,20.29 M2.29,18.88 C1.90227641,19.2700375 1.90227641,19.8999625 2.29,20.29 L3.71,21.71 C4.10003745,22.0977236 4.72996255,22.0977236 5.12,21.71 L10.59,16.25 L7.76,13.42 M20,2 L16,4 L16,6 L13.83,8.17 L15.83,10.17 L18,8 L20,8 L22,4 L20,2 Z"/><path d="M0 0H24V24H0z"/></g>
		</g>
		<g id="img-unshare-screen">
			<g xmlns="http://www.w3.org/2000/svg" fill="none" fill-rule="evenodd"><path fill="#4D4D4D" d="M21.22,18.02 L23.22,20.02 L24,20.02 L24,18.02 L21.22,18.02 Z M21.99,16.02 L22,6.02 C22,4.9154305 21.1045695,4.02 20,4.02 L7.22,4.02 L12.45,9.25 C12.63,9.21 12.81,9.18 13,9.15 L13,7.02 L17,10.75 L15.42,12.22 L20.96,17.76 C21.57,17.43 21.99,16.77 21.99,16.02 L21.99,16.02 Z M2.39,1.73 L1.11,3 L2.65,4.54 C2.25,4.9 2,5.43 2,6.02 L2,16.02 C2,17.1245695 2.8954305,18.02 4,18.02 L0,18.02 L0,20.02 L18.13,20.02 L20.84,22.73 L22.11,21.46 L2.39,1.73 Z M7,15.02 C7.31,13.54 7.92,12.07 9.07,10.96 L10.66,12.55 C9.12,12.93 7.96,13.73 7,15.02 L7,15.02 Z"/><path d="M0 0H24V24H0z"/></g>
		</g>
		<g id="img-upload">
			<g xmlns="http://www.w3.org/2000/svg" fill="none" fill-rule="evenodd"><path fill="#4D4D4D" d="M9,16 L9,10 L5,10 L12,3 L19,10 L15,10 L15,16 L9,16 M5,20 L5,18 L19,18 L19,20 L5,20 Z"/><path d="M0 0H24V24H0z"/></g>
		</g>
		<g id="img-video-off">
			<g xmlns="http://www.w3.org/2000/svg" fill="none" fill-rule="evenodd"><path fill="#4D4D4D" d="M21,6.5 L17,10.5 L17,7 C17,6.45 16.55,6 16,6 L9.82,6 L21,17.18 L21,6.5 Z M3.27,2 L2,3.27 L4.73,6 L4,6 C3.45,6 3,6.45 3,7 L3,17 C3,17.55 3.45,18 4,18 L16,18 C16.21,18 16.39,17.92 16.54,17.82 L19.73,21 L21,19.73 L3.27,2 Z"/><path d="M0 0H24V24H0z"/></g>
		</g>
		<g id="img-video-on">
			<g xmlns="http://www.w3.org/2000/svg" fill="none" fill-rule="evenodd"><path fill="#F2F2F2" d="M17,10.5 L17,7 C17,6.45 16.55,6 16,6 L4,6 C3.45,6 3,6.45 3,7 L3,17 C3,17.55 3.45,18 4,18 L16,18 C16.55,18 17,17.55 17,17 L17,13.5 L21,17.5 L21,6.5 L17,10.5 Z"/><path d="M0 0H24V24H0z"/></g>
		</g>
		<g id="img-view-zoom-in">
			<g xmlns="http://www.w3.org/2000/svg" fill="none" fill-rule="evenodd"><path fill="#4D4D4D" d="M19 13L13 13 13 19 11 19 11 13 5 13 5 11 11 11 11 5 13 5 13 11 19 11z"/><path d="M0 0H24V24H0z"/></g>
		</g>
		<g id="img-view-zoom-out">
			<g xmlns="http://www.w3.org/2000/svg" fill="none" fill-rule="evenodd"><path fill="#4D4D4D" d="M19 12.998L5 12.998 5 10.998 19 10.998z"/><path d="M0 0H24V24H0z"/></g>
		</g>
		<g id="img-view-centered">
			<path xmlns="http://www.w3.org/2000/svg" fill="#4D4D4D" fill-rule="evenodd" d="M0,9 L3,9 L3,7 L0,7 L0,9 Z M17,9 L20.001,9 L20.001,7 L17,7 L17,9 Z M9,3 L11,3 L11,0 L9,0 L9,3 Z M13,9 L11,9 L11,11 L9,11 L9,9 L7,9 L7,7 L9,7 L9,5 L11,5 L11,7 L13,7 L13,9 Z M9,16 L11,16 L11,13 L9,13 L9,16 Z M13,0 L13,2 L18,2 L18,5 L20,5 L20,0 L13,0 Z M18,14 L13,14 L13,16 L20,16 L20,11 L18,11 L18,14 Z M0,5 L2,5 L2,2 L7,2 L7,0 L0,0 L0,5 Z M2,11 L0,11 L0,16 L7,16 L7,14 L2,14 L2,11 Z" transform="translate(2 4)"/>
		</g>
		<g id="img-whiteboard-selected">
			<g xmlns="http://www.w3.org/2000/svg" fill="none" fill-rule="evenodd"><path fill="#FFFFFF" d="M7.75,17.85 C9.53,17.15 9.14,15.22 8.24,14 C7.35,12.75 6.12,11.89 4.88,11.06 C3.99525172,10.502359 3.20529297,9.8069252 2.54,9 C2.26,8.67 1.69,8.06 2.27,7.94 C2.86,7.82 3.88,8.4 4.4,8.62 C5.31,9 6.21,9.44 7.05,9.96 L8.06,8.26 C6.5,7.23 4.5,6.32 2.64,6.05 C1.58,5.89 0.46,6.11 0.1,7.26 C-0.22,8.25 0.29,9.25 0.87,10.03 C2.24,11.86 4.37,12.74 5.96,14.32 C6.3,14.65 6.71,15.04 6.91,15.5 C7.12,15.94 7.07,15.97 6.6,15.97 C5.36,15.97 3.81,15 2.8,14.36 L1.79,16.06 C3.32,17 5.88,18.47 7.75,17.85 M18.84,2.25 C19.06,2.03 19.06,1.67 18.84,1.46 L17.54,0.16 C17.3223215,-0.049796083 16.9776785,-0.049796083 16.76,0.16 L15.74,1.18 L17.82,3.26 M9,7.92 L9,10 L11.08,10 L17.23,3.85 L15.15,1.77 L9,7.92 Z" transform="translate(2 3)"/><path d="M0 0H24V24H0z"/></g>
		</g>
		<g id="img-whiteboard">
			<g xmlns="http://www.w3.org/2000/svg" fill="none" fill-rule="evenodd"><path fill="#4D4D4D" d="M7.75,17.85 C9.53,17.15 9.14,15.22 8.24,14 C7.35,12.75 6.12,11.89 4.88,11.06 C3.99525172,10.502359 3.20529297,9.8069252 2.54,9 C2.26,8.67 1.69,8.06 2.27,7.94 C2.86,7.82 3.88,8.4 4.4,8.62 C5.31,9 6.21,9.44 7.05,9.96 L8.06,8.26 C6.5,7.23 4.5,6.32 2.64,6.05 C1.58,5.89 0.46,6.11 0.1,7.26 C-0.22,8.25 0.29,9.25 0.87,10.03 C2.24,11.86 4.37,12.74 5.96,14.32 C6.3,14.65 6.71,15.04 6.91,15.5 C7.12,15.94 7.07,15.97 6.6,15.97 C5.36,15.97 3.81,15 2.8,14.36 L1.79,16.06 C3.32,17 5.88,18.47 7.75,17.85 M18.84,2.25 C19.06,2.03 19.06,1.67 18.84,1.46 L17.54,0.16 C17.3223215,-0.049796083 16.9776785,-0.049796083 16.76,0.16 L15.74,1.18 L17.82,3.26 M9,7.92 L9,10 L11.08,10 L17.23,3.85 L15.15,1.77 L9,7.92 Z" transform="translate(2 3)"/><path d="M0 0H24V24H0z"/></g>
		</g>
	</defs>
</svg>
